<svg xmlns="http://www.w3.org/2000/svg" width="72.811" height="39.971" viewBox="0 0 72.811 39.971">
  <g id="Group_1" data-name="Group 1" transform="translate(-474.5 -204)">
    <g id="Polygon_2" data-name="Polygon 2" transform="translate(507.34 204)">
      <path d="M 19.98525047302246 38.55630111694336 L 1.414219617843628 19.98525047302246 L 19.98525047302246 1.414219856262207 L 38.55630111694336 19.98526000976563 L 19.98525047302246 38.55630111694336 Z" stroke="none"/>
      <path d="M 19.98525047302246 2.828418731689453 L 2.828418731689453 19.98525047302246 L 19.98525047302246 37.1421012878418 L 37.14209747314453 19.98526000976563 L 19.98525047302246 2.828418731689453 M 19.98525047302246 0 L 39.97052001953125 19.98526000976563 L 19.98525047302246 39.97052001953125 L 0 19.98525047302246 L 19.98525047302246 0 Z" stroke="none" fill="#fff"/>
    </g>
    <g id="Polygon_3" data-name="Polygon 3" transform="translate(474.5 204)">
      <path d="M 19.98526000976563 38.55630111694336 L 1.414219975471497 19.98526000976563 L 19.98526000976563 1.414219975471497 L 38.55630111694336 19.98526000976563 L 19.98526000976563 38.55630111694336 Z" stroke="none"/>
      <path d="M 19.98526000976563 2.828418731689453 L 2.828418731689453 19.98526000976563 L 19.98526000976563 37.1421012878418 L 37.1421012878418 19.98526000976563 L 19.98526000976563 2.828418731689453 M 19.98526000976563 0 L 39.97052001953125 19.98526000976563 L 19.98526000976563 39.97052001953125 L 0 19.98526000976563 L 19.98526000976563 0 Z" stroke="none" fill="#fff"/>
    </g>
    <g id="Polygon_1" data-name="Polygon 1" transform="translate(490.92 204)">
      <path d="M 19.98526000976563 38.55630111694336 L 1.414219975471497 19.98526000976563 L 19.98526000976563 1.414219975471497 L 38.55630111694336 19.98526000976563 L 19.98526000976563 38.55630111694336 Z" stroke="none"/>
      <path d="M 19.98526000976563 2.828418731689453 L 2.828418731689453 19.98526000976563 L 19.98526000976563 37.1421012878418 L 37.1421012878418 19.98526000976563 L 19.98526000976563 2.828418731689453 M 19.98526000976563 0 L 39.97052001953125 19.98526000976563 L 19.98526000976563 39.97052001953125 L 0 19.98526000976563 L 19.98526000976563 0 Z" stroke="none" fill="#fff"/>
    </g>
  </g>
</svg>
